HIERARCHY
ROOT Hips
{
  OFFSET 5.72205e-005 65.662 3.42586
  CHANNELS 6 Xposition Yposition Zposition Zrotation Xrotation Yrotation
  JOINT Chest
  {
    OFFSET 0 8.7983 -4.7612
    CHANNELS 3 Zrotation Xrotation Yrotation
    JOINT Chest2
    {
      OFFSET 0 8.0291 0.4195
      CHANNELS 3 Zrotation Xrotation Yrotation
      JOINT Chest3
      {
        OFFSET 0 9.9351 -2.2114
        CHANNELS 3 Zrotation Xrotation Yrotation
        JOINT Neck
        {
          OFFSET 0 22.3885 -0.4656
          CHANNELS 3 Zrotation Xrotation Yrotation
          JOINT Head
          {
            OFFSET -0.0001 12.643 3.4389
            CHANNELS 3 Zrotation Xrotation Yrotation
            End Site
            {
              OFFSET 0.0001 17.6655 0.5274
            }
          }
        }
        JOINT LeftCollar
        {
          OFFSET 2.2603 21.606 7.4023
          CHANNELS 3 Zrotation Xrotation Yrotation
          JOINT LeftShoulder
          {
            OFFSET 13.5163 -1.1332 -5.0146
            CHANNELS 3 Zrotation Xrotation Yrotation
            JOINT LeftElbow
            {
              OFFSET -0.0995 -28.05 -0.2431
              CHANNELS 3 Zrotation Xrotation Yrotation
              JOINT LeftWrist
              {
                OFFSET 0.0679 -23.3996 -0.1402
                CHANNELS 3 Zrotation Xrotation Yrotation
                JOINT LeftFinger1
                {
                  OFFSET 0.7932 -9.069 2.5189
                  CHANNELS 3 Zrotation Xrotation Yrotation
                  JOINT LeftFinger11
                  {
                    OFFSET -0.8272 -3.3923 0.5977
                    CHANNELS 3 Zrotation Xrotation Yrotation
                    JOINT LeftFinger12
                    {
                      OFFSET -0.5649 -2.3158 0.4082
                      CHANNELS 3 Zrotation Xrotation Yrotation
                      End Site
                      {
                        OFFSET -0.4919 -1.6479 0.2673
                      }
                    }
                  }
                }
                JOINT LeftFinger2
                {
                  OFFSET 0.9159 -9.2044 0.2193
                  CHANNELS 3 Zrotation Xrotation Yrotation
                  JOINT LeftFinger21
                  {
                    OFFSET 0.0117 -4.1944 -0.0248
                    CHANNELS 3 Zrotation Xrotation Yrotation
                    JOINT LeftFinger22
                    {
                      OFFSET 0.0071 -2.3249 -0.0142
                      CHANNELS 3 Zrotation Xrotation Yrotation
                      End Site
                      {
                        OFFSET -0.1475 -2.0882 0.0028
                      }
                    }
                  }
                }
                JOINT LeftFinger3
                {
                  OFFSET 0.6113 -8.7231 -2.0637
                  CHANNELS 3 Zrotation Xrotation Yrotation
                  JOINT LeftFinger31
                  {
                    OFFSET -0.1927 -3.8059 -0.2383
                    CHANNELS 3 Zrotation Xrotation Yrotation
                    JOINT LeftFinger32
                    {
                      OFFSET -0.1091 -2.1688 -0.1362
                      CHANNELS 3 Zrotation Xrotation Yrotation
                      End Site
                      {
                        OFFSET -0.2358 -1.9176 -0.0906
                      }
                    }
                  }
                }
                JOINT LeftFinger4
                {
                  OFFSET -0.6151 -8.0947 -3.5641
                  CHANNELS 3 Zrotation Xrotation Yrotation
                  JOINT LeftFinger41
                  {
                    OFFSET -0.4882 -2.341 -0.6462
                    CHANNELS 3 Zrotation Xrotation Yrotation
                    JOINT LeftFinger42
                    {
                      OFFSET -0.3575 -1.7167 -0.4742
                      CHANNELS 3 Zrotation Xrotation Yrotation
                      End Site
                      {
                        OFFSET -0.4187 -1.5237 -0.3496
                      }
                    }
                  }
                }
                JOINT LeftFinger0
                {
                  OFFSET -1.42 -1.8761 1.4223
                  CHANNELS 3 Zrotation Xrotation Yrotation
                  JOINT LeftFinger01
                  {
                    OFFSET -1.1471 -3.4929 2.6334
                    CHANNELS 3 Zrotation Xrotation Yrotation
                    JOINT LeftFinger02
                    {
                      OFFSET -0.823 -2.3 1.6571
                      CHANNELS 3 Zrotation Xrotation Yrotation
                      End Site
                      {
                        OFFSET -0.5822 -1.6914 1.1582
                      }
                    }
                  }
                }
              }
            }
          }
        }
        JOINT RightCollar
        {
          OFFSET -2.2603 21.606 7.4023
          CHANNELS 3 Zrotation Xrotation Yrotation
          JOINT RightShoulder
          {
            OFFSET -13.5187 -1.1334 -5.0155
            CHANNELS 3 Zrotation Xrotation Yrotation
            JOINT RightElbow
            {
              OFFSET 0.0994 -28.0499 -0.2431
              CHANNELS 3 Zrotation Xrotation Yrotation
              JOINT RightWrist
              {
                OFFSET -0.0679 -23.3996 -0.1402
                CHANNELS 3 Zrotation Xrotation Yrotation
                JOINT RightFinger1
                {
                  OFFSET -0.7932 -9.0691 2.5189
                  CHANNELS 3 Zrotation Xrotation Yrotation
                  JOINT RightFinger11
                  {
                    OFFSET 0.8272 -3.3923 0.5977
                    CHANNELS 3 Zrotation Xrotation Yrotation
                    JOINT RightFinger12
                    {
                      OFFSET 0.565 -2.3158 0.4082
                      CHANNELS 3 Zrotation Xrotation Yrotation
                      End Site
                      {
                        OFFSET 0.4919 -1.6479 0.2673
                      }
                    }
                  }
                }
                JOINT RightFinger2
                {
                  OFFSET -0.916 -9.2044 0.2193
                  CHANNELS 3 Zrotation Xrotation Yrotation
                  JOINT RightFinger21
                  {
                    OFFSET -0.0117 -4.1944 -0.0248
                    CHANNELS 3 Zrotation Xrotation Yrotation
                    JOINT RightFinger22
                    {
                      OFFSET -0.0071 -2.3249 -0.0142
                      CHANNELS 3 Zrotation Xrotation Yrotation
                      End Site
                      {
                        OFFSET 0.1475 -2.0882 0.0028
                      }
                    }
                  }
                }
                JOINT RightFinger3
                {
                  OFFSET -0.6113 -8.7231 -2.0637
                  CHANNELS 3 Zrotation Xrotation Yrotation
                  JOINT RightFinger31
                  {
                    OFFSET 0.1927 -3.8059 -0.2383
                    CHANNELS 3 Zrotation Xrotation Yrotation
                    JOINT RightFinger32
                    {
                      OFFSET 0.1091 -2.1688 -0.1362
                      CHANNELS 3 Zrotation Xrotation Yrotation
                      End Site
                      {
                        OFFSET 0.2358 -1.9176 -0.0906
                      }
                    }
                  }
                }
                JOINT RightFinger4
                {
                  OFFSET 0.6151 -8.0947 -3.564
                  CHANNELS 3 Zrotation Xrotation Yrotation
                  JOINT RightFinger41
                  {
                    OFFSET 0.4882 -2.341 -0.6462
                    CHANNELS 3 Zrotation Xrotation Yrotation
                    JOINT RightFinger42
                    {
                      OFFSET 0.3574 -1.7166 -0.4742
                      CHANNELS 3 Zrotation Xrotation Yrotation
                      End Site
                      {
                        OFFSET 0.4187 -1.5237 -0.3496
                      }
                    }
                  }
                }
                JOINT RightFinger0
                {
                  OFFSET 1.4199 -1.8761 1.4221
                  CHANNELS 3 Zrotation Xrotation Yrotation
                  JOINT RightFinger01
                  {
                    OFFSET 1.1472 -3.4929 2.6336
                    CHANNELS 3 Zrotation Xrotation Yrotation
                    JOINT RightFinger02
                    {
                      OFFSET 0.8229 -2.3 1.6571
                      CHANNELS 3 Zrotation Xrotation Yrotation
                      End Site
                      {
                        OFFSET 0.5822 -1.6914 1.1582
                      }
                    }
                  }
                }
              }
            }
          }
        }
      }
    }
  }
  JOINT RightHip
  {
    OFFSET -9.412 3.9771 -0.7758
    CHANNELS 3 Zrotation Xrotation Yrotation
    JOINT RightKnee
    {
      OFFSET -0.7531 -40.938 0
      CHANNELS 3 Zrotation Xrotation Yrotation
      JOINT RightAnkle
      {
        OFFSET 0 -40.1986 0
        CHANNELS 3 Zrotation Xrotation Yrotation
        JOINT RightToe
        {
          OFFSET 0 -4.4182 9.239
          CHANNELS 3 Zrotation Xrotation Yrotation
          End Site
          {
            OFFSET 0 0 6.1981
          }
        }
      }
    }
  }
  JOINT LeftHip
  {
    OFFSET 9.4119 3.9773 -0.7758
    CHANNELS 3 Zrotation Xrotation Yrotation
    JOINT LeftKnee
    {
      OFFSET 0.7532 -40.9383 0
      CHANNELS 3 Zrotation Xrotation Yrotation
      JOINT LeftAnkle
      {
        OFFSET 0 -40.1986 0
        CHANNELS 3 Zrotation Xrotation Yrotation
        JOINT LeftToe
        {
          OFFSET 0 -4.4182 9.239
          CHANNELS 3 Zrotation Xrotation Yrotation
          End Site
          {
            OFFSET 0 0 6.1981
          }
        }
      }
    }
  }
}
MOTION
Frames:	7
Frame Time:	0.0333333
5.72205e-005 65.662 3.42586 0 0 -0 0 0 -0 0 0 -0 0 0 -0 0 0 -0 0 0 -0 0 0 -12.5014 88.1196 14.2451 10.6914 -0.00160068 -0.00239207 0.000740045 -8.4365e-005 7.00714e-005 -9.52055e-007 9.93923e-017 -1.98785e-016 -1.59028e-015 9.93923e-017 -5.96354e-016 -1.59028e-015 -9.93923e-017 -5.96354e-016 -1.59028e-015 9.93923e-017 -1.98785e-016 -1.59028e-015 -0.0128176 0.00232552 8.52707e-005 9.93923e-017 5.96354e-016 -0 9.93923e-017 -1.98785e-016 -1.59028e-015 -0.0160551 0.00299681 0.000857156 -2.48481e-016 0 3.18055e-015 9.93923e-017 -1.98785e-016 -1.59028e-015 -0.0125865 0.0031206 0.00282719 0 1.98785e-016 -0 9.93923e-017 -1.98785e-016 -1.59028e-015 9.93923e-017 -5.96354e-016 -1.59028e-015 -9.93923e-017 -5.96354e-016 -1.59028e-015 -0.865644 0.16582 7.03859 -88.0329 10.2057 -10.5567 0.0015593 -0.00248883 -0.000788628 7.87605e-005 4.10553e-005 1.24965e-005 -3.97569e-016 -7.95139e-016 3.18055e-015 -1.98785e-016 -3.97569e-016 3.18055e-015 -1.98785e-016 0 3.18055e-015 -3.97569e-016 -7.95139e-016 3.18055e-015 0.0129473 0.00231697 -8.70038e-005 9.93923e-017 -7.95139e-016 1.59028e-015 -3.97569e-016 -7.95139e-016 3.18055e-015 0.0163314 0.00303369 -0.000872333 3.97569e-016 7.95139e-016 -3.18055e-015 -3.97569e-016 -7.95139e-016 3.18055e-015 0.0145763 0.00367772 -0.00326275 9.93923e-017 -3.97569e-016 -0 -3.97569e-016 -7.95139e-016 3.18055e-015 -1.98785e-016 -3.97569e-016 3.18055e-015 -1.98785e-016 0 3.18055e-015 3.42482 1.32465 -0.0626183 0.000117508 0.717283 0.000978199 -3.4257 -2.04197 -0.0604716 6.47761e-025 0 -0 -3.42483 1.34017 0.0627307 -0.000193936 0.682302 -0.0013703 3.42574 -2.02253 0.0595886 -8.45714e-024 0 -7.40531e-025 
12.0573 31.4993 -7.54351 84.9956 1.00619e-006 4.39588e-007 -1.92281 3.23758 -0.605058 -3.8204 6.49351 -1.10343 -3.82043 6.49353 -1.10343 36.3271 23.1846 -13.1435 -0.21287 -1.45078 30.9918 -20.9883 -0.72057 -10.6377 31.5553 -32.9345 3.98365 -143.084 -70.484 -150.45 1.51026 -31.8723 -0.576553 7.95139e-016 1.27222e-014 -1.59028e-015 -7.74734e-007 2.07648e-006 1.38293e-006 2.37552e-007 -6.36111e-015 -7.96885e-007 7.95139e-016 1.27222e-014 -1.59028e-015 -0.0127991 0.00232531 8.54894e-005 7.95139e-016 -3.18055e-015 -0 7.95139e-016 1.27222e-014 -1.59028e-015 -0.0160573 0.00299717 0.00085775 -6.17947e-031 2.22639e-014 1.59028e-015 7.95139e-016 1.27222e-014 -1.59028e-015 -0.0125145 0.00310939 0.00281113 7.95139e-016 -6.36111e-015 -0 7.95139e-016 1.27222e-014 -1.59028e-015 -7.74734e-007 2.07648e-006 1.38293e-006 2.37552e-007 -6.36111e-015 -7.96885e-007 21.7011 4.46366 18.171 -19.3689 5.30162 -20.8599 1.16426 -4.97679 -4.83853 8.31328 -10.946 -2.2656 -3.97569e-016 -3.97569e-016 1.59028e-015 -3.97569e-016 0 1.59028e-015 -1.2921e-015 0 -0 -3.97569e-016 -3.97569e-016 1.59028e-015 0.0129445 0.00231649 -8.46422e-005 1.98785e-016 3.97569e-016 -1.59028e-015 -3.97569e-016 -3.97569e-016 1.59028e-015 0.0163276 0.00303603 -0.000872054 2.98177e-016 0 -1.59028e-015 -3.97569e-016 -3.97569e-016 1.59028e-015 0.0145755 0.00367499 -0.00326168 1.19271e-015 7.95139e-016 -1.59028e-015 -3.97569e-016 -3.97569e-016 1.59028e-015 -3.97569e-016 0 1.59028e-015 -1.2921e-015 0 -0 5.97154 -3.81203 4.7238 0.53139 20.7108 -0.693855 -2.52442 13.5148 0.463732 7.07296e-007 1.26272e-006 -1.91639e-006 -0.28083 -30.1076 13.25 11.9759 86.8599 -16.9585 2.41055 30.9059 0.596854 7.95139e-016 3.97569e-016 2.43511e-015 
12.0573 31.4993 -7.54351 84.9956 1.00619e-006 4.39588e-007 -1.92281 3.23758 -0.605058 -3.8204 6.49351 -1.10343 -3.82043 6.49353 -1.10343 36.3271 23.1846 -13.1435 -0.212902 -1.45078 30.9918 -20.9883 -0.720568 -10.6377 31.5553 -32.9345 3.98365 -143.084 -70.484 -150.45 1.51025 -31.8723 -0.57655 1.0934e-005 -5.50808e-006 9.61887e-007 -7.74733e-007 2.24125e-006 1.38293e-006 2.37552e-007 -1.68861e-006 -7.96885e-007 1.0934e-005 -5.50808e-006 9.61887e-007 -0.0127922 0.00232308 8.87285e-005 6.48976e-007 -1.32085e-006 -3.39834e-006 1.0934e-005 -5.50808e-006 9.61887e-007 -0.0160571 0.00299942 0.000857851 -1.07858e-005 1.14744e-006 -8.56941e-007 1.0934e-005 -5.50808e-006 9.61887e-007 -0.0125257 0.00310851 0.00281287 -1.59028e-015 -1.38571e-007 1.59028e-015 1.0934e-005 -5.50808e-006 9.61887e-007 -7.74733e-007 2.24125e-006 1.38293e-006 2.37552e-007 -1.68861e-006 -7.96885e-007 21.7011 4.46366 18.171 -19.3689 5.30161 -20.8599 1.16427 -4.97676 -4.83854 8.31329 -10.946 -2.2656 6.41952e-006 -1.58096e-008 1.03377e-007 -6.45304e-006 -1.32486e-006 7.2515e-007 -1.39149e-015 -7.95139e-016 -0 6.41952e-006 -1.58096e-008 1.03377e-007 0.0129449 0.00231674 -8.46474e-005 -3.35075e-008 1.30964e-006 8.28525e-007 6.41952e-006 -1.58096e-008 1.03377e-007 0.016314 0.00303191 -0.000871408 -6.95746e-016 -7.95139e-016 3.18055e-015 6.41952e-006 -1.58096e-008 1.03377e-007 0.0146023 0.00368475 -0.00326463 3.97569e-016 0 -0 6.41952e-006 -1.58096e-008 1.03377e-007 -6.45304e-006 -1.32486e-006 7.2515e-007 -1.39149e-015 -7.95139e-016 -0 5.97155 -3.81205 4.7238 0.531416 20.7108 -0.693878 -2.52446 13.5148 0.463748 1.34567e-006 2.25351e-006 -3.15331e-006 -0.28083 -30.1076 13.25 11.9759 86.8599 -16.9585 2.41055 30.9059 0.596854 7.95139e-016 3.97569e-016 2.43511e-015 
12.0573 31.4993 -7.54351 84.9956 1.00619e-006 4.39588e-007 -1.92281 3.23758 -0.605058 -3.8204 6.49351 -1.10343 -3.82043 6.49353 -1.10343 36.3271 23.1846 -13.1435 -0.21288 -1.45078 30.9918 -20.9883 -0.720568 -10.6377 31.5551 -32.9346 3.98361 -143.084 -70.484 -150.45 1.51026 -31.8723 -0.576529 -1.34786e-005 2.68975e-006 -4.36463e-006 2.37552e-007 1.55007e-006 -7.96885e-007 7.95139e-016 -3.18055e-015 4.77083e-015 -1.34786e-005 2.68975e-006 -4.36463e-006 -0.0127885 0.00232255 8.81472e-005 -7.06225e-031 6.36111e-015 6.36111e-015 -1.34786e-005 2.68975e-006 -4.36463e-006 -0.0160569 0.00299637 0.000858964 1.59028e-015 3.18055e-015 -1.59028e-015 -1.34786e-005 2.68975e-006 -4.36463e-006 -0.0125036 0.00310316 0.00281299 1.59028e-015 0 3.18055e-015 -1.34786e-005 2.68975e-006 -4.36463e-006 2.37552e-007 1.55007e-006 -7.96885e-007 7.95139e-016 -3.18055e-015 4.77083e-015 21.7011 4.46366 18.171 -19.3689 5.30162 -20.8599 1.16426 -4.97678 -4.83853 8.31328 -10.946 -2.2656 1.98785e-016 0 1.59028e-015 7.95139e-016 7.95139e-016 -0 1.49089e-015 3.97569e-016 1.59028e-015 1.98785e-016 0 1.59028e-015 0.012951 0.00231649 -8.6196e-005 6.95746e-016 -3.97569e-016 -1.59028e-015 1.98785e-016 0 1.59028e-015 0.0163345 0.00303613 -0.000872773 -9.93923e-017 0 1.59028e-015 1.98785e-016 0 1.59028e-015 0.0146089 0.00368245 -0.00326783 9.93923e-017 3.97569e-016 1.59028e-015 1.98785e-016 0 1.59028e-015 7.95139e-016 7.95139e-016 -0 1.49089e-015 3.97569e-016 1.59028e-015 5.97155 -3.81205 4.7238 0.531409 20.7109 -0.693865 -2.52446 13.5148 0.463737 8.18023e-006 -1.23379e-006 -2.7301e-006 -0.280799 -30.108 13.25 11.9766 86.8602 -16.9591 2.41059 30.9059 0.596855 7.95139e-016 3.97569e-016 -2.83268e-015 
12.0573 31.4993 -7.54351 84.9956 1.00619e-006 4.39588e-007 -1.92281 3.23758 -0.605058 -3.8204 6.49351 -1.10343 -3.82043 6.49353 -1.10343 36.3271 23.1846 -13.1435 -0.21287 -1.45078 30.9918 -20.9883 -0.72057 -10.6377 31.5553 -32.9345 3.98365 -143.084 -70.484 -150.45 1.51026 -31.8723 -0.576553 7.95139e-016 1.27222e-014 -1.59028e-015 -7.74734e-007 2.07648e-006 1.38293e-006 2.37552e-007 -6.36111e-015 -7.96885e-007 7.95139e-016 1.27222e-014 -1.59028e-015 -0.0127991 0.00232531 8.54894e-005 7.95139e-016 -3.18055e-015 -0 7.95139e-016 1.27222e-014 -1.59028e-015 -0.0160573 0.00299717 0.00085775 -6.17947e-031 2.22639e-014 1.59028e-015 7.95139e-016 1.27222e-014 -1.59028e-015 -0.0125145 0.00310939 0.00281113 7.95139e-016 -6.36111e-015 -0 7.95139e-016 1.27222e-014 -1.59028e-015 -7.74734e-007 2.07648e-006 1.38293e-006 2.37552e-007 -6.36111e-015 -7.96885e-007 21.7011 4.46366 18.171 -19.3689 5.30162 -20.8599 1.16426 -4.97679 -4.83853 8.31328 -10.946 -2.2656 -3.97569e-016 -3.97569e-016 1.59028e-015 -3.97569e-016 0 1.59028e-015 -1.2921e-015 0 -0 -3.97569e-016 -3.97569e-016 1.59028e-015 0.0129445 0.00231649 -8.46422e-005 1.98785e-016 3.97569e-016 -1.59028e-015 -3.97569e-016 -3.97569e-016 1.59028e-015 0.0163276 0.00303603 -0.000872054 2.98177e-016 0 -1.59028e-015 -3.97569e-016 -3.97569e-016 1.59028e-015 0.0145755 0.00367499 -0.00326168 1.19271e-015 7.95139e-016 -1.59028e-015 -3.97569e-016 -3.97569e-016 1.59028e-015 -3.97569e-016 0 1.59028e-015 -1.2921e-015 0 -0 5.97154 -3.81203 4.7238 0.53139 20.7108 -0.693855 -2.52442 13.5148 0.463732 7.07296e-007 1.26272e-006 -1.91639e-006 -0.28083 -30.1076 13.25 11.9759 86.8599 -16.9585 2.41055 30.9059 0.596854 7.95139e-016 3.97569e-016 2.43511e-015 
12.0573 31.4993 -7.54351 84.9956 1.04619e-006 5.32698e-007 -1.92281 3.23759 -0.605058 -3.8204 6.49352 -1.10343 -3.82043 6.49353 -1.10343 36.3271 23.1846 -13.1435 -0.212894 -1.45079 30.9918 -20.9883 -0.720569 -10.6377 31.5555 -32.9345 3.98376 -143.084 -70.484 -150.45 1.51025 -31.8724 -0.576544 -7.95139e-016 1.50275e-006 1.59028e-015 -1.59028e-015 0 -1.59028e-015 2.37552e-007 -4.7326e-008 -7.96885e-007 -7.95139e-016 1.50275e-006 1.59028e-015 -0.012792 0.00232182 8.69313e-005 6.25678e-007 8.51088e-007 -1.48833e-006 -7.95139e-016 1.50275e-006 1.59028e-015 -0.0160431 0.00299802 0.000859728 -3.17044e-006 -1.86282e-006 -1.91451e-006 -7.95139e-016 1.50275e-006 1.59028e-015 -0.0125848 0.00312437 0.00283095 1.03368e-014 -6.36111e-015 3.18055e-015 -7.95139e-016 1.50275e-006 1.59028e-015 -1.59028e-015 0 -1.59028e-015 2.37552e-007 -4.7326e-008 -7.96885e-007 21.7011 4.46366 18.171 -19.369 5.30159 -20.8599 1.16429 -4.97673 -4.83854 8.31329 -10.9461 -2.2656 -6.70397e-008 -8.77492e-007 1.65705e-006 -1.88845e-015 -3.97569e-016 1.59028e-015 4.24457e-007 -3.48851e-007 6.11031e-009 -6.70397e-008 -8.77492e-007 1.65705e-006 0.012965 0.00231953 -8.76751e-005 -6.95746e-016 0 1.59028e-015 -6.70397e-008 -8.77492e-007 1.65705e-006 0.0163341 0.0030356 -0.000875265 -2.98177e-016 7.95139e-016 -3.18055e-015 -6.70397e-008 -8.77492e-007 1.65705e-006 0.0146024 0.00368257 -0.00326711 -6.42059e-006 -8.78961e-007 -1.03548e-007 -6.70397e-008 -8.77492e-007 1.65705e-006 -1.88845e-015 -3.97569e-016 1.59028e-015 4.24457e-007 -3.48851e-007 6.11031e-009 5.97155 -3.81205 4.7238 0.531385 20.7108 -0.693853 -2.52442 13.5148 0.46373 0 0 -0 -0.280821 -30.1083 13.25 11.9778 86.8606 -16.9603 2.4106 30.9059 0.596853 7.95139e-016 0 5.46658e-016 
12.0573 31.4993 -7.5435 84.9956 -7.23443e-008 -9.23252e-007 -1.92281 3.23756 -0.605056 -3.8204 6.49349 -1.10343 -3.82042 6.4935 -1.10343 36.3271 23.1847 -13.1435 -0.212886 -1.4508 30.9918 -20.9883 -0.720498 -10.6377 31.5552 -32.9345 3.98366 -143.084 -70.484 -150.45 1.51027 -31.8723 -0.57653 1.59028e-015 0 -3.18055e-015 -1.59028e-015 -9.54166e-015 -1.59028e-015 7.95139e-016 -3.18055e-015 -1.59028e-015 1.59028e-015 0 -3.18055e-015 -0.0128411 0.00233015 8.38093e-005 1.59028e-015 0 -1.59028e-015 1.59028e-015 0 -3.18055e-015 -0.0160935 0.00300745 0.000860484 -1.59028e-015 3.18055e-015 -0 1.59028e-015 0 -3.18055e-015 -0.0126139 0.0031297 0.00283231 6.17947e-031 2.22639e-014 -1.59028e-015 1.59028e-015 0 -3.18055e-015 -1.59028e-015 -9.54166e-015 -1.59028e-015 7.95139e-016 -3.18055e-015 -1.59028e-015 21.7011 4.46373 18.171 -19.3689 5.30162 -20.8599 1.16427 -4.9768 -4.83853 8.31329 -10.946 -2.26561 1.2921e-015 -7.95139e-016 -0 1.59028e-015 0 -1.59028e-015 1.59028e-015 -3.97569e-016 -0 1.2921e-015 -7.95139e-016 -0 0.0129374 0.00231353 -8.55692e-005 -4.96962e-016 -3.97569e-016 -4.77083e-015 1.2921e-015 -7.95139e-016 -0 0.016328 0.00303351 -0.000872884 1.59028e-015 -7.95139e-016 -0 1.2921e-015 -7.95139e-016 -0 0.0145623 0.00367302 -0.00326021 3.37382e-007 -5.01366e-007 8.23124e-007 1.2921e-015 -7.95139e-016 -0 1.59028e-015 0 -1.59028e-015 1.59028e-015 -3.97569e-016 -0 5.97156 -3.81179 4.72378 0.531352 20.7106 -0.693844 -2.52444 13.5148 0.463747 -1.11036e-005 3.4497e-006 -2.56502e-006 -0.28079 -30.1082 13.25 11.977 86.8604 -16.9595 2.41061 30.906 0.596831 4.87351e-006 6.24496e-007 -6.92622e-006 
